# xmcd
#
# Track frame offsets:
#	182
#	9475
#	21732
#	32107
#	47162
#	57395
#	69787
#	80870
#	93655
#	105292
#	119332
#	132522
#	143492
#	159507
#	171597
#	182525
#	190345
#	200140
#	210920
#	225120
#	234727
#	245685
#	256770
#	269620
#
# Disc length: 3749 seconds
#
# Revision: 0
# Processed by: cddbd v1.5.2PL0 Copyright (c) Steve Scherf et al.
# Submitted via: audiograbber 1.83.01
#
DISCID=570ea318
DTITLE=Jerry Lee Lewis - Killer:  The Mercury Years Volume One 1963-1968
DYEAR=1989
DGENRE=Crossover
TTITLE0=Corrine, Corrina
TTITLE1=The Hole He Said He'd Dig For Me
TTITLE2=She Was My Baby (He Was My Friend)
TTITLE3=Got You On My Mind
TTITLE4=Mathilda
TTITLE5=Memphis Beat
TTITLE6=Don't Let Go
TTITLE7=Skid Row
TTITLE8=I Believe In You
TTITLE9=Baby, Hold Me Close
TTITLE10=Funny How Time Slips Away
TTITLE11=This Must Be The Place
TTITLE12=Who Will The Next Fool Be?
TTITLE13=Rockin' Jerry Lee
TTITLE14=Dream Baby
TTITLE15=Louisiana Man
TTITLE16=Today I Started Loving You Again
TTITLE17=I'm On Fire
TTITLE18=The Wild Side Of Life
TTITLE19=Walking The Floor Over You
TTITLE20=Another Place, Another Time
TTITLE21=Break My Mind
TTITLE22=Swinging Doors
TTITLE23=What's Made Milwaukee Famous
EXTD=PolyGram/Mercury CD 836 935-2. Printed in U.S.A.
EXTT0=
EXTT1=
EXTT2=
EXTT3=
EXTT4=
EXTT5=
EXTT6=
EXTT7=
EXTT8=
EXTT9=
EXTT10=
EXTT11=
EXTT12=
EXTT13=
EXTT14=
EXTT15=
EXTT16=
EXTT17=
EXTT18=
EXTT19=
EXTT20=
EXTT21=
EXTT22=
EXTT23=
PLAYORDER=
